<svg xmlns="http://www.w3.org/2000/svg" version="1.1" xmlns:xlink="http://www.w3.org/1999/xlink" width="1000" height="1000"><metadata><rdf:RDF xmlns:rdf="http://www.w3.org/1999/02/22-rdf-syntax-ns#" xmlns:dc="http://purl.org/dc/elements/1.1/"><rdf:Description><dc:creator>RealFaviconGenerator</dc:creator><dc:source>https://realfavicongenerator.net</dc:source></rdf:Description></rdf:RDF></metadata><style>
    #light-icon {
      display: inline;
    }
    #dark-icon {
      display: none;
    }

    @media (prefers-color-scheme: dark) {
      #light-icon {
        display: none;
      }
      #dark-icon {
        display: inline;
      }
    }
  </style><g id="light-icon"><svg xmlns="http://www.w3.org/2000/svg" version="1.1" xmlns:xlink="http://www.w3.org/1999/xlink" width="1000" height="1000"><g clip-path="url(#SvgjsClipPath1082)"><rect width="1000" height="1000" fill="#ffffff"></rect><g transform="matrix(0.9765625,0,0,0.9765625,0,0)"><svg xmlns="http://www.w3.org/2000/svg" version="1.1" xmlns:xlink="http://www.w3.org/1999/xlink" baseProfile="full" height="1024" viewBox="0 0 1024 1024" width="1024" xmlns:ev="http://www.w3.org/2001/xml-events"><defs><clipPath id="SvgjsClipPath1082"><rect width="1000" height="1000" x="0" y="0" rx="500" ry="500"></rect></clipPath></defs><circle cx="512" cy="512" fill="#e1d7c5" r="512"></circle><path d="M 513.20,250.00 L 526.00,239.40 L 536.00,230.40 L 541.23,225.00 L 545.24,220.00 L 549.28,213.00 L 551.07,207.00 L 551.45,201.00 L 550.32,196.00 L 548.37,192.00 L 544.73,188.00 L 543.00,186.55 L 540.00,184.92 L 536.00,183.62 L 529.00,183.55 L 525.00,184.68 L 523.00,185.73 L 520.00,187.66 L 516.58,191.00 L 513.70,195.00 L 512.00,198.62 L 511.00,197.66 L 509.22,194.00 L 506.04,190.00 L 503.95,188.00 L 501.00,185.95 L 498.00,184.47 L 495.00,183.54 L 489.00,183.48 L 485.00,184.48 L 481.00,186.69 L 479.00,188.47 L 476.78,191.00 L 474.51,195.00 L 473.58,198.00 L 473.30,205.00 L 473.81,209.00 L 475.58,214.00 L 477.73,218.00 L 480.55,222.00 L 490.00,232.29 L 511.00,250.35 L 512.00,250.83 L 513.20,250.00 Z M 581.64,499.00 L 589.00,498.42 L 595.00,497.36 L 605.00,495.25 L 606.00,494.68 L 611.00,493.41 L 624.00,488.45 L 641.00,479.39 L 651.00,472.48 L 662.00,463.41 L 671.55,454.00 L 683.77,441.00 L 693.00,432.75 L 702.00,426.56 L 715.63,420.00 L 713.00,417.60 L 710.00,415.68 L 700.00,410.65 L 690.00,407.50 L 681.00,405.69 L 669.00,405.01 L 656.00,405.59 L 644.00,407.79 L 635.00,410.68 L 634.14,410.00 L 636.40,404.00 L 639.45,393.00 L 642.33,374.00 L 642.70,360.00 L 642.54,341.00 L 641.60,320.00 L 641.70,315.00 L 642.66,305.00 L 645.74,290.00 L 649.98,278.00 L 649.00,277.26 L 647.00,277.64 L 642.00,279.35 L 629.00,282.57 L 628.00,283.23 L 618.00,286.62 L 613.00,288.77 L 601.00,294.66 L 587.00,303.63 L 577.00,311.74 L 565.73,323.00 L 558.00,332.63 L 549.20,316.00 L 538.35,299.00 L 526.43,283.00 L 512.00,266.08 L 511.00,266.54 L 503.67,275.00 L 492.50,289.00 L 486.65,297.00 L 474.58,316.00 L 468.65,327.00 L 466.00,332.83 L 457.07,322.00 L 450.00,314.86 L 439.00,305.58 L 432.00,300.59 L 424.00,295.63 L 412.00,289.60 L 400.00,284.79 L 390.00,281.65 L 380.00,279.27 L 376.00,277.74 L 374.00,277.56 L 373.49,278.00 L 373.39,279.00 L 377.23,289.00 L 379.25,296.00 L 381.36,308.00 L 382.28,319.00 L 381.07,348.00 L 380.99,361.00 L 381.65,375.00 L 382.67,383.00 L 384.70,394.00 L 386.55,401.00 L 389.89,410.00 L 389.00,410.55 L 380.00,407.60 L 368.00,405.56 L 358.00,404.99 L 344.00,405.74 L 335.00,407.56 L 325.00,410.77 L 315.00,415.69 L 312.00,417.59 L 309.23,420.00 L 311.00,421.46 L 317.00,423.92 L 322.00,426.56 L 331.00,432.74 L 339.00,439.88 L 354.00,455.65 L 362.00,463.45 L 369.00,469.38 L 380.00,477.40 L 390.00,483.41 L 398.00,487.38 L 405.00,490.40 L 417.00,494.45 L 423.00,495.79 L 424.00,496.33 L 430.00,497.43 L 445.00,499.40 L 458.00,499.44 L 467.00,498.49 L 479.00,496.16 L 485.00,494.35 L 486.00,493.65 L 490.00,492.32 L 501.00,487.48 L 512.00,481.65 L 523.00,487.35 L 532.00,491.47 L 539.00,494.33 L 546.00,496.43 L 556.00,498.41 L 566.00,499.43 L 577.00,499.47 L 581.64,499.00 Z M 512.00,466.13 L 502.00,460.37 L 493.00,453.36 L 485.69,446.00 L 481.77,441.00 L 478.59,436.00 L 473.61,426.00 L 470.63,417.00 L 468.67,407.00 L 467.96,393.00 L 468.69,380.00 L 470.76,368.00 L 473.76,357.00 L 478.65,344.00 L 486.71,328.00 L 494.77,315.00 L 503.62,303.00 L 511.00,294.37 L 512.00,293.68 L 520.25,303.00 L 531.21,318.00 L 539.00,331.01 L 545.33,344.00 L 549.22,354.00 L 552.16,364.00 L 552.63,367.00 L 553.20,368.00 L 555.43,382.00 L 555.75,393.00 L 555.34,405.00 L 553.20,417.00 L 549.38,428.00 L 544.10,438.00 L 537.26,447.00 L 531.00,453.26 L 526.00,457.38 L 519.00,462.27 L 512.00,466.13 Z M 627.00,301.43 L 626.55,301.00 L 627.13,301.00 L 627.00,301.43 Z M 480.00,463.91 L 471.00,462.38 L 461.00,459.39 L 450.00,454.41 L 440.00,448.23 L 430.00,440.08 L 423.94,434.00 L 418.87,428.00 L 413.83,421.00 L 408.73,412.00 L 405.67,405.00 L 402.90,397.00 L 400.82,389.00 L 399.73,383.00 L 398.53,370.00 L 398.39,351.00 L 398.83,322.00 L 398.25,312.00 L 396.28,302.00 L 397.00,301.17 L 404.00,303.79 L 414.00,308.60 L 424.00,314.64 L 431.00,319.70 L 439.00,326.59 L 446.20,334.00 L 453.40,343.00 L 458.06,350.00 L 458.43,352.00 L 457.71,353.00 L 456.79,356.00 L 454.62,364.00 L 454.17,367.00 L 453.64,368.00 L 451.49,384.00 L 451.50,404.00 L 453.58,418.00 L 457.62,431.00 L 460.74,438.00 L 464.63,445.00 L 468.63,451.00 L 472.74,456.00 L 476.00,459.32 L 480.99,463.00 L 480.00,463.91 Z M 545.00,464.01 L 543.00,464.52 L 542.16,464.00 L 547.00,459.93 L 553.51,453.00 L 557.22,448.00 L 561.47,441.00 L 567.37,428.00 L 569.28,422.00 L 571.29,413.00 L 572.53,402.00 L 572.35,384.00 L 571.38,375.00 L 570.30,369.00 L 567.41,357.00 L 565.41,351.00 L 565.48,350.00 L 571.78,341.00 L 576.64,335.00 L 584.34,327.00 L 594.00,318.67 L 604.00,311.75 L 611.00,307.76 L 619.00,303.81 L 626.00,301.14 L 626.85,302.00 L 625.60,308.00 L 624.63,320.00 L 625.43,362.00 L 624.32,379.00 L 623.19,387.00 L 621.32,395.00 L 619.17,402.00 L 615.36,411.00 L 609.18,422.00 L 603.29,430.00 L 594.77,439.00 L 585.00,447.32 L 576.00,453.17 L 566.00,458.13 L 557.00,461.25 L 545.00,464.01 Z M 460.00,483.04 L 453.00,483.45 L 443.00,483.30 L 431.00,481.41 L 422.00,479.34 L 410.00,475.20 L 398.00,469.35 L 391.00,465.21 L 384.00,460.35 L 373.00,451.12 L 367.81,446.00 L 351.00,427.56 L 345.65,423.00 L 343.53,422.00 L 343.58,421.00 L 345.00,420.70 L 359.00,420.60 L 369.00,421.65 L 378.00,423.62 L 384.00,425.58 L 390.00,427.95 L 397.00,431.55 L 403.74,436.00 L 410.54,444.00 L 418.00,451.35 L 425.00,457.30 L 435.00,464.32 L 446.00,470.44 L 455.00,474.35 L 466.00,478.17 L 470.00,479.32 L 474.62,480.00 L 474.76,481.00 L 474.00,481.30 L 460.00,483.04 Z M 581.00,483.12 L 575.00,483.44 L 564.00,483.20 L 556.00,482.30 L 553.00,481.54 L 550.00,481.43 L 549.32,481.00 L 550.00,480.30 L 558.00,478.29 L 567.00,475.35 L 578.00,470.47 L 589.00,464.25 L 600.00,456.35 L 607.00,450.23 L 614.13,443.00 L 620.34,436.00 L 629.00,430.59 L 635.00,427.63 L 646.00,423.64 L 656.00,421.57 L 664.00,420.70 L 671.00,420.57 L 680.26,421.00 L 680.07,422.00 L 676.00,424.74 L 670.56,430.00 L 653.00,449.07 L 640.00,460.22 L 631.00,466.31 L 624.00,470.32 L 616.00,474.13 L 605.00,478.27 L 593.00,481.40 L 581.00,483.12 Z M 481.00,464.25 L 480.23,464.00 L 481.00,463.03 L 481.46,464.00 L 481.00,464.25 Z M 191.15,668.00 L 192.00,667.73 L 193.45,666.00 L 193.35,665.00 L 192.03,663.00 L 191.00,662.51 L 188.00,662.30 L 183.24,660.00 L 181.00,657.87 L 178.81,655.00 L 177.78,652.00 L 176.89,647.00 L 176.70,642.00 L 176.75,620.00 L 177.39,616.00 L 195.49,581.00 L 195.71,580.00 L 202.62,567.00 L 210.81,553.00 L 216.70,545.00 L 222.00,539.38 L 228.00,534.54 L 231.00,532.94 L 233.00,532.33 L 234.39,531.00 L 234.54,529.00 L 233.00,527.47 L 193.00,527.49 L 191.90,528.00 L 191.35,530.00 L 191.43,531.00 L 192.00,531.69 L 193.00,532.50 L 195.00,532.72 L 198.00,533.96 L 199.56,535.00 L 201.23,537.00 L 201.94,541.00 L 201.29,546.00 L 198.41,554.00 L 193.14,565.00 L 176.32,598.00 L 174.00,601.55 L 171.66,598.00 L 163.27,582.00 L 151.60,561.00 L 148.75,555.00 L 145.65,546.00 L 145.30,543.00 L 145.66,538.00 L 148.00,534.89 L 150.00,533.71 L 152.00,533.35 L 154.79,532.00 L 155.51,531.00 L 155.60,530.00 L 155.00,528.83 L 154.00,528.29 L 152.00,528.19 L 94.00,528.32 L 93.17,529.00 L 92.79,530.00 L 93.50,532.00 L 95.00,533.07 L 99.00,534.67 L 102.00,536.62 L 105.87,540.00 L 110.36,545.00 L 116.43,554.00 L 149.25,613.00 L 151.18,618.00 L 151.28,644.00 L 150.21,652.00 L 148.28,656.00 L 145.00,659.27 L 142.00,661.09 L 139.00,662.26 L 136.00,662.62 L 135.00,663.43 L 134.36,665.00 L 135.00,666.93 L 136.00,667.81 L 137.00,668.08 L 191.15,668.00 Z M 680.30,670.00 L 686.00,669.49 L 692.00,668.39 L 694.38,667.00 L 695.34,665.00 L 695.35,664.00 L 695.24,663.00 L 694.00,661.44 L 690.00,660.24 L 687.57,658.00 L 685.55,653.00 L 684.78,625.00 L 684.84,600.00 L 684.32,592.00 L 683.17,587.00 L 680.42,581.00 L 676.78,577.00 L 674.00,574.68 L 670.00,572.63 L 667.00,571.71 L 663.00,571.09 L 658.00,570.94 L 653.00,571.58 L 649.00,572.58 L 646.00,573.68 L 641.00,576.62 L 635.00,581.98 L 632.00,585.53 L 631.00,585.44 L 629.35,582.00 L 627.18,579.00 L 623.00,574.78 L 617.00,571.73 L 612.00,570.47 L 603.00,570.70 L 596.00,573.47 L 594.00,574.59 L 588.00,579.82 L 584.66,584.00 L 584.39,585.00 L 583.00,586.30 L 582.57,585.00 L 582.58,572.00 L 582.00,571.35 L 578.00,571.67 L 567.00,575.42 L 553.00,578.59 L 551.57,581.00 L 551.94,582.00 L 553.00,583.36 L 554.00,583.67 L 557.00,585.85 L 558.00,587.12 L 559.46,590.00 L 560.37,594.00 L 560.41,649.00 L 560.17,653.00 L 558.10,659.00 L 556.00,661.11 L 552.00,662.34 L 551.00,662.30 L 546.13,660.00 L 544.00,658.37 L 541.82,656.00 L 538.53,651.00 L 534.88,643.00 L 528.64,625.00 L 528.28,623.00 L 527.65,622.00 L 524.34,611.00 L 523.69,610.00 L 520.46,599.00 L 518.85,595.00 L 499.28,535.00 L 497.20,532.00 L 494.00,529.44 L 489.00,527.75 L 487.00,527.54 L 481.00,527.66 L 472.00,528.59 L 471.00,528.74 L 469.46,530.00 L 469.11,531.00 L 469.34,532.00 L 471.34,534.00 L 471.80,537.00 L 471.29,544.00 L 470.37,548.00 L 462.39,573.00 L 461.76,574.00 L 455.28,594.00 L 452.57,601.00 L 440.16,638.00 L 436.31,647.00 L 434.19,651.00 L 430.15,657.00 L 426.89,660.00 L 425.00,661.28 L 422.00,662.51 L 420.52,664.00 L 420.58,666.00 L 422.00,667.66 L 423.00,668.03 L 460.00,668.16 L 461.53,667.00 L 461.55,664.00 L 460.00,662.62 L 457.00,661.25 L 452.71,657.00 L 450.72,653.00 L 449.58,648.00 L 449.69,643.00 L 456.63,621.00 L 458.00,620.58 L 499.00,620.60 L 500.35,621.00 L 505.20,636.00 L 507.25,644.00 L 507.64,651.00 L 507.39,655.00 L 505.44,659.00 L 502.91,661.00 L 499.00,662.52 L 497.60,664.00 L 497.48,666.00 L 497.84,667.00 L 499.00,667.89 L 578.00,668.14 L 591.00,668.08 L 592.00,667.74 L 593.22,666.00 L 593.42,665.00 L 592.54,663.00 L 589.00,661.27 L 585.74,658.00 L 583.68,654.00 L 583.15,651.00 L 582.69,639.00 L 582.93,609.00 L 583.85,602.00 L 584.65,599.00 L 586.61,595.00 L 588.00,593.13 L 590.06,591.00 L 592.00,589.72 L 595.00,588.65 L 600.00,588.10 L 604.00,588.72 L 606.00,589.64 L 608.45,592.00 L 610.29,596.00 L 611.23,604.00 L 611.17,652.00 L 610.27,657.00 L 609.31,659.00 L 607.00,661.35 L 605.00,661.77 L 602.76,663.00 L 601.50,665.00 L 601.82,667.00 L 604.00,668.16 L 643.00,668.12 L 644.00,667.75 L 645.32,666.00 L 645.35,665.00 L 644.30,663.00 L 643.00,662.45 L 641.00,662.38 L 638.00,661.28 L 634.60,658.00 L 633.65,656.00 L 632.94,650.00 L 632.95,609.00 L 633.71,603.00 L 634.73,599.00 L 636.70,594.00 L 638.00,592.09 L 640.00,589.75 L 643.00,587.58 L 645.00,586.69 L 650.00,585.79 L 655.00,586.56 L 658.00,588.56 L 660.56,592.00 L 662.39,597.00 L 663.37,605.00 L 663.15,652.00 L 663.56,659.00 L 664.51,663.00 L 665.46,665.00 L 669.00,668.38 L 672.00,669.44 L 680.30,670.00 Z M 335.25,669.00 L 341.00,667.41 L 345.00,665.38 L 348.00,662.83 L 351.50,659.00 L 353.41,656.00 L 354.13,654.00 L 353.00,651.51 L 351.00,650.90 L 345.00,654.37 L 342.00,655.24 L 337.00,655.27 L 334.00,654.25 L 332.32,653.00 L 330.53,651.00 L 329.55,649.00 L 328.84,647.00 L 328.54,644.00 L 328.45,583.00 L 329.00,582.52 L 349.00,582.52 L 350.07,582.00 L 351.12,580.00 L 351.36,576.00 L 350.78,574.00 L 350.00,573.04 L 349.00,572.55 L 329.00,572.72 L 328.41,572.00 L 328.53,547.00 L 328.00,545.76 L 326.00,545.39 L 320.21,553.00 L 313.22,561.00 L 303.00,570.19 L 295.00,576.64 L 294.01,579.00 L 294.45,581.00 L 296.00,582.53 L 306.00,582.52 L 306.43,583.00 L 306.55,651.00 L 307.57,656.00 L 308.71,659.00 L 309.68,661.00 L 312.77,665.00 L 316.00,667.47 L 318.00,668.42 L 322.00,669.50 L 329.00,669.85 L 334.00,669.46 L 335.25,669.00 Z M 496.00,612.27 L 459.77,612.00 L 459.57,611.00 L 460.38,610.00 L 461.69,605.00 L 464.31,598.00 L 465.66,593.00 L 467.36,589.00 L 470.69,578.00 L 471.42,577.00 L 471.80,575.00 L 478.00,556.61 L 479.00,557.33 L 490.53,593.00 L 492.25,597.00 L 494.56,605.00 L 496.18,609.00 L 496.73,611.00 L 496.58,612.00 L 496.00,612.27 Z M 279.50,670.00 L 286.00,669.31 L 289.00,668.29 L 291.00,667.09 L 294.19,664.00 L 295.47,662.00 L 295.70,660.00 L 295.53,658.00 L 294.00,656.67 L 292.00,656.72 L 290.00,657.73 L 287.00,657.29 L 285.63,656.00 L 284.65,653.00 L 284.34,599.00 L 283.50,594.00 L 282.32,590.00 L 280.43,586.00 L 279.24,584.00 L 276.00,580.33 L 270.00,575.63 L 264.00,572.63 L 257.00,570.62 L 248.00,570.20 L 241.00,570.59 L 233.00,572.80 L 227.00,575.54 L 220.95,580.00 L 218.44,583.00 L 216.89,586.00 L 215.84,592.00 L 215.62,597.00 L 215.76,600.00 L 217.00,602.45 L 220.00,602.69 L 221.00,602.54 L 221.57,602.00 L 222.62,599.00 L 225.72,593.00 L 228.66,589.00 L 232.00,585.63 L 236.00,582.95 L 241.00,580.82 L 247.00,580.46 L 249.00,580.72 L 254.00,582.71 L 257.35,586.00 L 259.27,589.00 L 261.20,594.00 L 262.24,598.00 L 262.54,606.00 L 262.00,606.45 L 244.00,609.66 L 237.00,611.49 L 231.00,613.62 L 223.00,617.67 L 219.00,620.57 L 216.00,623.45 L 212.51,628.00 L 210.52,632.00 L 209.63,635.00 L 209.01,640.00 L 209.48,649.00 L 210.62,653.00 L 212.47,657.00 L 213.59,659.00 L 217.00,662.95 L 220.00,665.54 L 223.00,667.40 L 229.00,669.34 L 237.00,669.76 L 242.00,669.31 L 245.00,668.51 L 252.00,665.40 L 257.19,661.00 L 259.48,658.00 L 262.00,653.57 L 263.63,660.00 L 265.61,664.00 L 267.42,666.00 L 271.00,668.28 L 274.00,669.49 L 279.50,670.00 Z M 739.94,670.00 L 748.00,669.37 L 757.00,666.24 L 765.00,661.36 L 771.44,655.00 L 774.42,651.00 L 777.31,646.00 L 780.39,639.00 L 782.48,632.00 L 783.45,626.00 L 783.56,621.00 L 783.36,614.00 L 782.27,608.00 L 780.47,602.00 L 778.52,597.00 L 775.44,591.00 L 770.33,584.00 L 767.00,580.71 L 763.00,577.56 L 758.00,574.70 L 753.00,572.66 L 749.00,571.58 L 742.00,570.59 L 732.00,571.58 L 723.00,574.68 L 718.00,577.63 L 713.00,581.63 L 709.74,585.00 L 704.58,592.00 L 701.57,598.00 L 699.63,603.00 L 697.50,612.00 L 696.67,621.00 L 697.58,630.00 L 699.67,639.00 L 703.73,648.00 L 708.61,655.00 L 714.00,660.28 L 718.00,663.28 L 723.00,666.05 L 729.00,668.45 L 733.00,669.39 L 739.94,670.00 Z M 826.10,668.00 L 828.00,666.85 L 828.51,666.00 L 828.53,664.00 L 827.00,662.47 L 824.00,661.17 L 822.71,660.00 L 819.78,656.00 L 818.54,652.00 L 818.49,609.00 L 818.58,606.00 L 819.53,600.00 L 820.51,597.00 L 821.65,595.00 L 825.41,591.00 L 829.00,588.59 L 831.00,588.86 L 832.00,589.54 L 833.43,591.00 L 836.01,595.00 L 838.00,596.63 L 840.00,597.55 L 843.00,597.80 L 846.00,597.34 L 848.00,596.49 L 851.03,594.00 L 854.12,590.00 L 855.27,587.00 L 855.52,581.00 L 854.54,578.00 L 852.00,574.68 L 849.00,572.60 L 846.00,571.60 L 840.00,571.17 L 837.00,571.49 L 831.00,573.51 L 827.90,576.00 L 820.62,585.00 L 819.00,587.70 L 818.51,587.00 L 818.53,572.00 L 817.00,570.94 L 800.00,576.18 L 790.00,578.21 L 788.64,579.00 L 788.39,580.00 L 788.50,582.00 L 789.00,582.65 L 792.00,584.69 L 794.03,587.00 L 795.41,590.00 L 796.11,594.00 L 796.14,647.00 L 795.37,655.00 L 794.00,658.74 L 792.00,661.22 L 787.00,662.90 L 786.01,665.00 L 785.98,666.00 L 787.00,667.58 L 788.00,668.03 L 826.10,668.00 Z M 903.63,669.00 L 906.00,668.44 L 911.00,666.38 L 918.00,661.46 L 921.40,658.00 L 927.41,650.00 L 928.42,648.00 L 928.50,645.00 L 927.00,643.65 L 925.00,643.54 L 920.00,648.38 L 916.00,651.46 L 913.00,653.36 L 908.00,655.30 L 903.00,655.66 L 899.00,655.49 L 893.00,653.23 L 890.00,651.21 L 886.71,648.00 L 883.73,644.00 L 881.76,640.00 L 879.81,634.00 L 878.99,629.00 L 878.55,617.00 L 879.00,616.57 L 880.00,616.50 L 929.00,616.52 L 930.02,615.00 L 930.40,612.00 L 929.39,600.00 L 927.49,593.00 L 925.30,588.00 L 921.44,582.00 L 916.00,576.64 L 911.00,573.49 L 906.00,571.55 L 900.00,570.49 L 892.00,570.55 L 883.00,572.61 L 875.00,576.66 L 868.95,582.00 L 863.78,589.00 L 859.58,598.00 L 856.66,608.00 L 855.51,615.00 L 855.12,622.00 L 855.57,633.00 L 857.72,642.00 L 859.83,647.00 L 862.69,652.00 L 865.56,656.00 L 872.00,662.31 L 875.00,664.37 L 881.00,667.45 L 887.00,669.14 L 897.00,669.87 L 903.63,669.00 Z M 396.50,668.00 L 399.00,667.96 L 400.00,667.49 L 400.47,667.00 L 400.99,665.00 L 400.00,663.36 L 399.00,662.69 L 397.00,662.30 L 394.00,659.79 L 391.59,656.00 L 390.62,652.00 L 390.41,612.00 L 390.78,602.00 L 391.85,598.00 L 393.92,594.00 L 398.00,589.97 L 400.00,588.57 L 402.00,587.78 L 403.00,587.80 L 405.00,589.23 L 407.44,594.00 L 410.00,597.29 L 414.00,599.35 L 417.00,599.70 L 420.00,599.39 L 424.00,597.30 L 425.30,596.00 L 427.49,593.00 L 429.32,588.00 L 429.30,583.00 L 428.41,580.00 L 427.37,578.00 L 424.79,575.00 L 421.00,572.49 L 418.00,571.59 L 415.00,571.15 L 408.00,571.43 L 403.00,572.75 L 396.58,579.00 L 392.82,584.00 L 391.00,587.40 L 390.38,587.00 L 390.37,572.00 L 389.00,571.07 L 386.00,571.52 L 378.00,574.33 L 371.00,576.18 L 366.00,577.41 L 362.00,577.90 L 360.23,579.00 L 359.76,580.00 L 359.65,582.00 L 365.00,586.43 L 366.23,588.00 L 367.43,591.00 L 367.77,598.00 L 367.87,648.00 L 367.25,655.00 L 366.32,658.00 L 363.93,661.00 L 359.94,663.00 L 358.93,666.00 L 360.00,667.64 L 362.00,668.10 L 396.50,668.00 Z M 908.00,606.51 L 880.00,606.52 L 879.00,606.42 L 878.68,606.00 L 879.78,599.00 L 881.73,591.00 L 883.79,586.00 L 885.67,583.00 L 889.00,579.78 L 891.00,578.63 L 894.00,577.88 L 896.00,577.91 L 899.00,578.84 L 900.72,580.00 L 904.41,584.00 L 906.24,588.00 L 907.50,593.00 L 908.37,600.00 L 908.52,606.00 L 908.00,606.51 Z M 742.00,662.10 L 738.00,662.23 L 734.00,660.41 L 731.00,657.97 L 727.84,654.00 L 725.63,650.00 L 724.46,646.00 L 723.77,645.00 L 722.79,641.00 L 721.50,631.00 L 721.50,608.00 L 723.77,596.00 L 726.64,589.00 L 729.88,584.00 L 732.00,581.89 L 735.00,579.86 L 739.00,578.53 L 742.00,578.70 L 747.00,580.67 L 752.37,586.00 L 755.10,591.00 L 757.26,597.00 L 758.39,602.00 L 759.46,611.00 L 759.61,623.00 L 759.17,633.00 L 758.30,639.00 L 756.36,646.00 L 753.32,653.00 L 750.32,657.00 L 746.00,660.48 L 742.00,662.10 Z M 248.00,655.35 L 242.00,655.45 L 239.00,654.31 L 236.00,651.73 L 233.76,649.00 L 231.85,644.00 L 231.52,641.00 L 231.61,634.00 L 232.78,630.00 L 236.00,625.23 L 239.00,622.56 L 242.00,620.79 L 247.00,618.71 L 255.00,616.72 L 262.00,615.53 L 262.56,616.00 L 262.40,633.00 L 260.31,642.00 L 258.42,646.00 L 255.00,650.61 L 252.00,653.38 L 248.00,655.35 Z" fill="#7f3a17" fill-rule="evenodd" stroke="none"></path></svg></g></g></svg></g><g id="dark-icon"><svg xmlns="http://www.w3.org/2000/svg" version="1.1" xmlns:xlink="http://www.w3.org/1999/xlink" width="1000" height="1000"><g><g transform="matrix(0.9765625,0,0,0.9765625,0,0)"><svg xmlns="http://www.w3.org/2000/svg" version="1.1" xmlns:xlink="http://www.w3.org/1999/xlink" baseProfile="full" height="1024" viewBox="0 0 1024 1024" width="1024" xmlns:ev="http://www.w3.org/2001/xml-events"><defs></defs><circle cx="512" cy="512" fill="#e1d7c5" r="512"></circle><path d="M 513.20,250.00 L 526.00,239.40 L 536.00,230.40 L 541.23,225.00 L 545.24,220.00 L 549.28,213.00 L 551.07,207.00 L 551.45,201.00 L 550.32,196.00 L 548.37,192.00 L 544.73,188.00 L 543.00,186.55 L 540.00,184.92 L 536.00,183.62 L 529.00,183.55 L 525.00,184.68 L 523.00,185.73 L 520.00,187.66 L 516.58,191.00 L 513.70,195.00 L 512.00,198.62 L 511.00,197.66 L 509.22,194.00 L 506.04,190.00 L 503.95,188.00 L 501.00,185.95 L 498.00,184.47 L 495.00,183.54 L 489.00,183.48 L 485.00,184.48 L 481.00,186.69 L 479.00,188.47 L 476.78,191.00 L 474.51,195.00 L 473.58,198.00 L 473.30,205.00 L 473.81,209.00 L 475.58,214.00 L 477.73,218.00 L 480.55,222.00 L 490.00,232.29 L 511.00,250.35 L 512.00,250.83 L 513.20,250.00 Z M 581.64,499.00 L 589.00,498.42 L 595.00,497.36 L 605.00,495.25 L 606.00,494.68 L 611.00,493.41 L 624.00,488.45 L 641.00,479.39 L 651.00,472.48 L 662.00,463.41 L 671.55,454.00 L 683.77,441.00 L 693.00,432.75 L 702.00,426.56 L 715.63,420.00 L 713.00,417.60 L 710.00,415.68 L 700.00,410.65 L 690.00,407.50 L 681.00,405.69 L 669.00,405.01 L 656.00,405.59 L 644.00,407.79 L 635.00,410.68 L 634.14,410.00 L 636.40,404.00 L 639.45,393.00 L 642.33,374.00 L 642.70,360.00 L 642.54,341.00 L 641.60,320.00 L 641.70,315.00 L 642.66,305.00 L 645.74,290.00 L 649.98,278.00 L 649.00,277.26 L 647.00,277.64 L 642.00,279.35 L 629.00,282.57 L 628.00,283.23 L 618.00,286.62 L 613.00,288.77 L 601.00,294.66 L 587.00,303.63 L 577.00,311.74 L 565.73,323.00 L 558.00,332.63 L 549.20,316.00 L 538.35,299.00 L 526.43,283.00 L 512.00,266.08 L 511.00,266.54 L 503.67,275.00 L 492.50,289.00 L 486.65,297.00 L 474.58,316.00 L 468.65,327.00 L 466.00,332.83 L 457.07,322.00 L 450.00,314.86 L 439.00,305.58 L 432.00,300.59 L 424.00,295.63 L 412.00,289.60 L 400.00,284.79 L 390.00,281.65 L 380.00,279.27 L 376.00,277.74 L 374.00,277.56 L 373.49,278.00 L 373.39,279.00 L 377.23,289.00 L 379.25,296.00 L 381.36,308.00 L 382.28,319.00 L 381.07,348.00 L 380.99,361.00 L 381.65,375.00 L 382.67,383.00 L 384.70,394.00 L 386.55,401.00 L 389.89,410.00 L 389.00,410.55 L 380.00,407.60 L 368.00,405.56 L 358.00,404.99 L 344.00,405.74 L 335.00,407.56 L 325.00,410.77 L 315.00,415.69 L 312.00,417.59 L 309.23,420.00 L 311.00,421.46 L 317.00,423.92 L 322.00,426.56 L 331.00,432.74 L 339.00,439.88 L 354.00,455.65 L 362.00,463.45 L 369.00,469.38 L 380.00,477.40 L 390.00,483.41 L 398.00,487.38 L 405.00,490.40 L 417.00,494.45 L 423.00,495.79 L 424.00,496.33 L 430.00,497.43 L 445.00,499.40 L 458.00,499.44 L 467.00,498.49 L 479.00,496.16 L 485.00,494.35 L 486.00,493.65 L 490.00,492.32 L 501.00,487.48 L 512.00,481.65 L 523.00,487.35 L 532.00,491.47 L 539.00,494.33 L 546.00,496.43 L 556.00,498.41 L 566.00,499.43 L 577.00,499.47 L 581.64,499.00 Z M 512.00,466.13 L 502.00,460.37 L 493.00,453.36 L 485.69,446.00 L 481.77,441.00 L 478.59,436.00 L 473.61,426.00 L 470.63,417.00 L 468.67,407.00 L 467.96,393.00 L 468.69,380.00 L 470.76,368.00 L 473.76,357.00 L 478.65,344.00 L 486.71,328.00 L 494.77,315.00 L 503.62,303.00 L 511.00,294.37 L 512.00,293.68 L 520.25,303.00 L 531.21,318.00 L 539.00,331.01 L 545.33,344.00 L 549.22,354.00 L 552.16,364.00 L 552.63,367.00 L 553.20,368.00 L 555.43,382.00 L 555.75,393.00 L 555.34,405.00 L 553.20,417.00 L 549.38,428.00 L 544.10,438.00 L 537.26,447.00 L 531.00,453.26 L 526.00,457.38 L 519.00,462.27 L 512.00,466.13 Z M 627.00,301.43 L 626.55,301.00 L 627.13,301.00 L 627.00,301.43 Z M 480.00,463.91 L 471.00,462.38 L 461.00,459.39 L 450.00,454.41 L 440.00,448.23 L 430.00,440.08 L 423.94,434.00 L 418.87,428.00 L 413.83,421.00 L 408.73,412.00 L 405.67,405.00 L 402.90,397.00 L 400.82,389.00 L 399.73,383.00 L 398.53,370.00 L 398.39,351.00 L 398.83,322.00 L 398.25,312.00 L 396.28,302.00 L 397.00,301.17 L 404.00,303.79 L 414.00,308.60 L 424.00,314.64 L 431.00,319.70 L 439.00,326.59 L 446.20,334.00 L 453.40,343.00 L 458.06,350.00 L 458.43,352.00 L 457.71,353.00 L 456.79,356.00 L 454.62,364.00 L 454.17,367.00 L 453.64,368.00 L 451.49,384.00 L 451.50,404.00 L 453.58,418.00 L 457.62,431.00 L 460.74,438.00 L 464.63,445.00 L 468.63,451.00 L 472.74,456.00 L 476.00,459.32 L 480.99,463.00 L 480.00,463.91 Z M 545.00,464.01 L 543.00,464.52 L 542.16,464.00 L 547.00,459.93 L 553.51,453.00 L 557.22,448.00 L 561.47,441.00 L 567.37,428.00 L 569.28,422.00 L 571.29,413.00 L 572.53,402.00 L 572.35,384.00 L 571.38,375.00 L 570.30,369.00 L 567.41,357.00 L 565.41,351.00 L 565.48,350.00 L 571.78,341.00 L 576.64,335.00 L 584.34,327.00 L 594.00,318.67 L 604.00,311.75 L 611.00,307.76 L 619.00,303.81 L 626.00,301.14 L 626.85,302.00 L 625.60,308.00 L 624.63,320.00 L 625.43,362.00 L 624.32,379.00 L 623.19,387.00 L 621.32,395.00 L 619.17,402.00 L 615.36,411.00 L 609.18,422.00 L 603.29,430.00 L 594.77,439.00 L 585.00,447.32 L 576.00,453.17 L 566.00,458.13 L 557.00,461.25 L 545.00,464.01 Z M 460.00,483.04 L 453.00,483.45 L 443.00,483.30 L 431.00,481.41 L 422.00,479.34 L 410.00,475.20 L 398.00,469.35 L 391.00,465.21 L 384.00,460.35 L 373.00,451.12 L 367.81,446.00 L 351.00,427.56 L 345.65,423.00 L 343.53,422.00 L 343.58,421.00 L 345.00,420.70 L 359.00,420.60 L 369.00,421.65 L 378.00,423.62 L 384.00,425.58 L 390.00,427.95 L 397.00,431.55 L 403.74,436.00 L 410.54,444.00 L 418.00,451.35 L 425.00,457.30 L 435.00,464.32 L 446.00,470.44 L 455.00,474.35 L 466.00,478.17 L 470.00,479.32 L 474.62,480.00 L 474.76,481.00 L 474.00,481.30 L 460.00,483.04 Z M 581.00,483.12 L 575.00,483.44 L 564.00,483.20 L 556.00,482.30 L 553.00,481.54 L 550.00,481.43 L 549.32,481.00 L 550.00,480.30 L 558.00,478.29 L 567.00,475.35 L 578.00,470.47 L 589.00,464.25 L 600.00,456.35 L 607.00,450.23 L 614.13,443.00 L 620.34,436.00 L 629.00,430.59 L 635.00,427.63 L 646.00,423.64 L 656.00,421.57 L 664.00,420.70 L 671.00,420.57 L 680.26,421.00 L 680.07,422.00 L 676.00,424.74 L 670.56,430.00 L 653.00,449.07 L 640.00,460.22 L 631.00,466.31 L 624.00,470.32 L 616.00,474.13 L 605.00,478.27 L 593.00,481.40 L 581.00,483.12 Z M 481.00,464.25 L 480.23,464.00 L 481.00,463.03 L 481.46,464.00 L 481.00,464.25 Z M 191.15,668.00 L 192.00,667.73 L 193.45,666.00 L 193.35,665.00 L 192.03,663.00 L 191.00,662.51 L 188.00,662.30 L 183.24,660.00 L 181.00,657.87 L 178.81,655.00 L 177.78,652.00 L 176.89,647.00 L 176.70,642.00 L 176.75,620.00 L 177.39,616.00 L 195.49,581.00 L 195.71,580.00 L 202.62,567.00 L 210.81,553.00 L 216.70,545.00 L 222.00,539.38 L 228.00,534.54 L 231.00,532.94 L 233.00,532.33 L 234.39,531.00 L 234.54,529.00 L 233.00,527.47 L 193.00,527.49 L 191.90,528.00 L 191.35,530.00 L 191.43,531.00 L 192.00,531.69 L 193.00,532.50 L 195.00,532.72 L 198.00,533.96 L 199.56,535.00 L 201.23,537.00 L 201.94,541.00 L 201.29,546.00 L 198.41,554.00 L 193.14,565.00 L 176.32,598.00 L 174.00,601.55 L 171.66,598.00 L 163.27,582.00 L 151.60,561.00 L 148.75,555.00 L 145.65,546.00 L 145.30,543.00 L 145.66,538.00 L 148.00,534.89 L 150.00,533.71 L 152.00,533.35 L 154.79,532.00 L 155.51,531.00 L 155.60,530.00 L 155.00,528.83 L 154.00,528.29 L 152.00,528.19 L 94.00,528.32 L 93.17,529.00 L 92.79,530.00 L 93.50,532.00 L 95.00,533.07 L 99.00,534.67 L 102.00,536.62 L 105.87,540.00 L 110.36,545.00 L 116.43,554.00 L 149.25,613.00 L 151.18,618.00 L 151.28,644.00 L 150.21,652.00 L 148.28,656.00 L 145.00,659.27 L 142.00,661.09 L 139.00,662.26 L 136.00,662.62 L 135.00,663.43 L 134.36,665.00 L 135.00,666.93 L 136.00,667.81 L 137.00,668.08 L 191.15,668.00 Z M 680.30,670.00 L 686.00,669.49 L 692.00,668.39 L 694.38,667.00 L 695.34,665.00 L 695.35,664.00 L 695.24,663.00 L 694.00,661.44 L 690.00,660.24 L 687.57,658.00 L 685.55,653.00 L 684.78,625.00 L 684.84,600.00 L 684.32,592.00 L 683.17,587.00 L 680.42,581.00 L 676.78,577.00 L 674.00,574.68 L 670.00,572.63 L 667.00,571.71 L 663.00,571.09 L 658.00,570.94 L 653.00,571.58 L 649.00,572.58 L 646.00,573.68 L 641.00,576.62 L 635.00,581.98 L 632.00,585.53 L 631.00,585.44 L 629.35,582.00 L 627.18,579.00 L 623.00,574.78 L 617.00,571.73 L 612.00,570.47 L 603.00,570.70 L 596.00,573.47 L 594.00,574.59 L 588.00,579.82 L 584.66,584.00 L 584.39,585.00 L 583.00,586.30 L 582.57,585.00 L 582.58,572.00 L 582.00,571.35 L 578.00,571.67 L 567.00,575.42 L 553.00,578.59 L 551.57,581.00 L 551.94,582.00 L 553.00,583.36 L 554.00,583.67 L 557.00,585.85 L 558.00,587.12 L 559.46,590.00 L 560.37,594.00 L 560.41,649.00 L 560.17,653.00 L 558.10,659.00 L 556.00,661.11 L 552.00,662.34 L 551.00,662.30 L 546.13,660.00 L 544.00,658.37 L 541.82,656.00 L 538.53,651.00 L 534.88,643.00 L 528.64,625.00 L 528.28,623.00 L 527.65,622.00 L 524.34,611.00 L 523.69,610.00 L 520.46,599.00 L 518.85,595.00 L 499.28,535.00 L 497.20,532.00 L 494.00,529.44 L 489.00,527.75 L 487.00,527.54 L 481.00,527.66 L 472.00,528.59 L 471.00,528.74 L 469.46,530.00 L 469.11,531.00 L 469.34,532.00 L 471.34,534.00 L 471.80,537.00 L 471.29,544.00 L 470.37,548.00 L 462.39,573.00 L 461.76,574.00 L 455.28,594.00 L 452.57,601.00 L 440.16,638.00 L 436.31,647.00 L 434.19,651.00 L 430.15,657.00 L 426.89,660.00 L 425.00,661.28 L 422.00,662.51 L 420.52,664.00 L 420.58,666.00 L 422.00,667.66 L 423.00,668.03 L 460.00,668.16 L 461.53,667.00 L 461.55,664.00 L 460.00,662.62 L 457.00,661.25 L 452.71,657.00 L 450.72,653.00 L 449.58,648.00 L 449.69,643.00 L 456.63,621.00 L 458.00,620.58 L 499.00,620.60 L 500.35,621.00 L 505.20,636.00 L 507.25,644.00 L 507.64,651.00 L 507.39,655.00 L 505.44,659.00 L 502.91,661.00 L 499.00,662.52 L 497.60,664.00 L 497.48,666.00 L 497.84,667.00 L 499.00,667.89 L 578.00,668.14 L 591.00,668.08 L 592.00,667.74 L 593.22,666.00 L 593.42,665.00 L 592.54,663.00 L 589.00,661.27 L 585.74,658.00 L 583.68,654.00 L 583.15,651.00 L 582.69,639.00 L 582.93,609.00 L 583.85,602.00 L 584.65,599.00 L 586.61,595.00 L 588.00,593.13 L 590.06,591.00 L 592.00,589.72 L 595.00,588.65 L 600.00,588.10 L 604.00,588.72 L 606.00,589.64 L 608.45,592.00 L 610.29,596.00 L 611.23,604.00 L 611.17,652.00 L 610.27,657.00 L 609.31,659.00 L 607.00,661.35 L 605.00,661.77 L 602.76,663.00 L 601.50,665.00 L 601.82,667.00 L 604.00,668.16 L 643.00,668.12 L 644.00,667.75 L 645.32,666.00 L 645.35,665.00 L 644.30,663.00 L 643.00,662.45 L 641.00,662.38 L 638.00,661.28 L 634.60,658.00 L 633.65,656.00 L 632.94,650.00 L 632.95,609.00 L 633.71,603.00 L 634.73,599.00 L 636.70,594.00 L 638.00,592.09 L 640.00,589.75 L 643.00,587.58 L 645.00,586.69 L 650.00,585.79 L 655.00,586.56 L 658.00,588.56 L 660.56,592.00 L 662.39,597.00 L 663.37,605.00 L 663.15,652.00 L 663.56,659.00 L 664.51,663.00 L 665.46,665.00 L 669.00,668.38 L 672.00,669.44 L 680.30,670.00 Z M 335.25,669.00 L 341.00,667.41 L 345.00,665.38 L 348.00,662.83 L 351.50,659.00 L 353.41,656.00 L 354.13,654.00 L 353.00,651.51 L 351.00,650.90 L 345.00,654.37 L 342.00,655.24 L 337.00,655.27 L 334.00,654.25 L 332.32,653.00 L 330.53,651.00 L 329.55,649.00 L 328.84,647.00 L 328.54,644.00 L 328.45,583.00 L 329.00,582.52 L 349.00,582.52 L 350.07,582.00 L 351.12,580.00 L 351.36,576.00 L 350.78,574.00 L 350.00,573.04 L 349.00,572.55 L 329.00,572.72 L 328.41,572.00 L 328.53,547.00 L 328.00,545.76 L 326.00,545.39 L 320.21,553.00 L 313.22,561.00 L 303.00,570.19 L 295.00,576.64 L 294.01,579.00 L 294.45,581.00 L 296.00,582.53 L 306.00,582.52 L 306.43,583.00 L 306.55,651.00 L 307.57,656.00 L 308.71,659.00 L 309.68,661.00 L 312.77,665.00 L 316.00,667.47 L 318.00,668.42 L 322.00,669.50 L 329.00,669.85 L 334.00,669.46 L 335.25,669.00 Z M 496.00,612.27 L 459.77,612.00 L 459.57,611.00 L 460.38,610.00 L 461.69,605.00 L 464.31,598.00 L 465.66,593.00 L 467.36,589.00 L 470.69,578.00 L 471.42,577.00 L 471.80,575.00 L 478.00,556.61 L 479.00,557.33 L 490.53,593.00 L 492.25,597.00 L 494.56,605.00 L 496.18,609.00 L 496.73,611.00 L 496.58,612.00 L 496.00,612.27 Z M 279.50,670.00 L 286.00,669.31 L 289.00,668.29 L 291.00,667.09 L 294.19,664.00 L 295.47,662.00 L 295.70,660.00 L 295.53,658.00 L 294.00,656.67 L 292.00,656.72 L 290.00,657.73 L 287.00,657.29 L 285.63,656.00 L 284.65,653.00 L 284.34,599.00 L 283.50,594.00 L 282.32,590.00 L 280.43,586.00 L 279.24,584.00 L 276.00,580.33 L 270.00,575.63 L 264.00,572.63 L 257.00,570.62 L 248.00,570.20 L 241.00,570.59 L 233.00,572.80 L 227.00,575.54 L 220.95,580.00 L 218.44,583.00 L 216.89,586.00 L 215.84,592.00 L 215.62,597.00 L 215.76,600.00 L 217.00,602.45 L 220.00,602.69 L 221.00,602.54 L 221.57,602.00 L 222.62,599.00 L 225.72,593.00 L 228.66,589.00 L 232.00,585.63 L 236.00,582.95 L 241.00,580.82 L 247.00,580.46 L 249.00,580.72 L 254.00,582.71 L 257.35,586.00 L 259.27,589.00 L 261.20,594.00 L 262.24,598.00 L 262.54,606.00 L 262.00,606.45 L 244.00,609.66 L 237.00,611.49 L 231.00,613.62 L 223.00,617.67 L 219.00,620.57 L 216.00,623.45 L 212.51,628.00 L 210.52,632.00 L 209.63,635.00 L 209.01,640.00 L 209.48,649.00 L 210.62,653.00 L 212.47,657.00 L 213.59,659.00 L 217.00,662.95 L 220.00,665.54 L 223.00,667.40 L 229.00,669.34 L 237.00,669.76 L 242.00,669.31 L 245.00,668.51 L 252.00,665.40 L 257.19,661.00 L 259.48,658.00 L 262.00,653.57 L 263.63,660.00 L 265.61,664.00 L 267.42,666.00 L 271.00,668.28 L 274.00,669.49 L 279.50,670.00 Z M 739.94,670.00 L 748.00,669.37 L 757.00,666.24 L 765.00,661.36 L 771.44,655.00 L 774.42,651.00 L 777.31,646.00 L 780.39,639.00 L 782.48,632.00 L 783.45,626.00 L 783.56,621.00 L 783.36,614.00 L 782.27,608.00 L 780.47,602.00 L 778.52,597.00 L 775.44,591.00 L 770.33,584.00 L 767.00,580.71 L 763.00,577.56 L 758.00,574.70 L 753.00,572.66 L 749.00,571.58 L 742.00,570.59 L 732.00,571.58 L 723.00,574.68 L 718.00,577.63 L 713.00,581.63 L 709.74,585.00 L 704.58,592.00 L 701.57,598.00 L 699.63,603.00 L 697.50,612.00 L 696.67,621.00 L 697.58,630.00 L 699.67,639.00 L 703.73,648.00 L 708.61,655.00 L 714.00,660.28 L 718.00,663.28 L 723.00,666.05 L 729.00,668.45 L 733.00,669.39 L 739.94,670.00 Z M 826.10,668.00 L 828.00,666.85 L 828.51,666.00 L 828.53,664.00 L 827.00,662.47 L 824.00,661.17 L 822.71,660.00 L 819.78,656.00 L 818.54,652.00 L 818.49,609.00 L 818.58,606.00 L 819.53,600.00 L 820.51,597.00 L 821.65,595.00 L 825.41,591.00 L 829.00,588.59 L 831.00,588.86 L 832.00,589.54 L 833.43,591.00 L 836.01,595.00 L 838.00,596.63 L 840.00,597.55 L 843.00,597.80 L 846.00,597.34 L 848.00,596.49 L 851.03,594.00 L 854.12,590.00 L 855.27,587.00 L 855.52,581.00 L 854.54,578.00 L 852.00,574.68 L 849.00,572.60 L 846.00,571.60 L 840.00,571.17 L 837.00,571.49 L 831.00,573.51 L 827.90,576.00 L 820.62,585.00 L 819.00,587.70 L 818.51,587.00 L 818.53,572.00 L 817.00,570.94 L 800.00,576.18 L 790.00,578.21 L 788.64,579.00 L 788.39,580.00 L 788.50,582.00 L 789.00,582.65 L 792.00,584.69 L 794.03,587.00 L 795.41,590.00 L 796.11,594.00 L 796.14,647.00 L 795.37,655.00 L 794.00,658.74 L 792.00,661.22 L 787.00,662.90 L 786.01,665.00 L 785.98,666.00 L 787.00,667.58 L 788.00,668.03 L 826.10,668.00 Z M 903.63,669.00 L 906.00,668.44 L 911.00,666.38 L 918.00,661.46 L 921.40,658.00 L 927.41,650.00 L 928.42,648.00 L 928.50,645.00 L 927.00,643.65 L 925.00,643.54 L 920.00,648.38 L 916.00,651.46 L 913.00,653.36 L 908.00,655.30 L 903.00,655.66 L 899.00,655.49 L 893.00,653.23 L 890.00,651.21 L 886.71,648.00 L 883.73,644.00 L 881.76,640.00 L 879.81,634.00 L 878.99,629.00 L 878.55,617.00 L 879.00,616.57 L 880.00,616.50 L 929.00,616.52 L 930.02,615.00 L 930.40,612.00 L 929.39,600.00 L 927.49,593.00 L 925.30,588.00 L 921.44,582.00 L 916.00,576.64 L 911.00,573.49 L 906.00,571.55 L 900.00,570.49 L 892.00,570.55 L 883.00,572.61 L 875.00,576.66 L 868.95,582.00 L 863.78,589.00 L 859.58,598.00 L 856.66,608.00 L 855.51,615.00 L 855.12,622.00 L 855.57,633.00 L 857.72,642.00 L 859.83,647.00 L 862.69,652.00 L 865.56,656.00 L 872.00,662.31 L 875.00,664.37 L 881.00,667.45 L 887.00,669.14 L 897.00,669.87 L 903.63,669.00 Z M 396.50,668.00 L 399.00,667.96 L 400.00,667.49 L 400.47,667.00 L 400.99,665.00 L 400.00,663.36 L 399.00,662.69 L 397.00,662.30 L 394.00,659.79 L 391.59,656.00 L 390.62,652.00 L 390.41,612.00 L 390.78,602.00 L 391.85,598.00 L 393.92,594.00 L 398.00,589.97 L 400.00,588.57 L 402.00,587.78 L 403.00,587.80 L 405.00,589.23 L 407.44,594.00 L 410.00,597.29 L 414.00,599.35 L 417.00,599.70 L 420.00,599.39 L 424.00,597.30 L 425.30,596.00 L 427.49,593.00 L 429.32,588.00 L 429.30,583.00 L 428.41,580.00 L 427.37,578.00 L 424.79,575.00 L 421.00,572.49 L 418.00,571.59 L 415.00,571.15 L 408.00,571.43 L 403.00,572.75 L 396.58,579.00 L 392.82,584.00 L 391.00,587.40 L 390.38,587.00 L 390.37,572.00 L 389.00,571.07 L 386.00,571.52 L 378.00,574.33 L 371.00,576.18 L 366.00,577.41 L 362.00,577.90 L 360.23,579.00 L 359.76,580.00 L 359.65,582.00 L 365.00,586.43 L 366.23,588.00 L 367.43,591.00 L 367.77,598.00 L 367.87,648.00 L 367.25,655.00 L 366.32,658.00 L 363.93,661.00 L 359.94,663.00 L 358.93,666.00 L 360.00,667.64 L 362.00,668.10 L 396.50,668.00 Z M 908.00,606.51 L 880.00,606.52 L 879.00,606.42 L 878.68,606.00 L 879.78,599.00 L 881.73,591.00 L 883.79,586.00 L 885.67,583.00 L 889.00,579.78 L 891.00,578.63 L 894.00,577.88 L 896.00,577.91 L 899.00,578.84 L 900.72,580.00 L 904.41,584.00 L 906.24,588.00 L 907.50,593.00 L 908.37,600.00 L 908.52,606.00 L 908.00,606.51 Z M 742.00,662.10 L 738.00,662.23 L 734.00,660.41 L 731.00,657.97 L 727.84,654.00 L 725.63,650.00 L 724.46,646.00 L 723.77,645.00 L 722.79,641.00 L 721.50,631.00 L 721.50,608.00 L 723.77,596.00 L 726.64,589.00 L 729.88,584.00 L 732.00,581.89 L 735.00,579.86 L 739.00,578.53 L 742.00,578.70 L 747.00,580.67 L 752.37,586.00 L 755.10,591.00 L 757.26,597.00 L 758.39,602.00 L 759.46,611.00 L 759.61,623.00 L 759.17,633.00 L 758.30,639.00 L 756.36,646.00 L 753.32,653.00 L 750.32,657.00 L 746.00,660.48 L 742.00,662.10 Z M 248.00,655.35 L 242.00,655.45 L 239.00,654.31 L 236.00,651.73 L 233.76,649.00 L 231.85,644.00 L 231.52,641.00 L 231.61,634.00 L 232.78,630.00 L 236.00,625.23 L 239.00,622.56 L 242.00,620.79 L 247.00,618.71 L 255.00,616.72 L 262.00,615.53 L 262.56,616.00 L 262.40,633.00 L 260.31,642.00 L 258.42,646.00 L 255.00,650.61 L 252.00,653.38 L 248.00,655.35 Z" fill="#7f3a17" fill-rule="evenodd" stroke="none"></path></svg></g></g></svg></g></svg>